PathFileType	4	(X/Y/Z)	s10c0301.trc
DataRate	CameraRate	NumFrames	NumMarkers	Units	OrigDataRate	OrigDataStartFrame	OrigNumFrames
200	200	5	50	mm	200	1750	2000
Frame#	Time	racr			lacr			c7			jug			rlel			rdr			llel			ldr			s2			lic			ric			lasi			rasi			rpsi			lpsi			rgt			lgt			rth1			rth2			rth3			rth4			rlfc			rmfc			rsh1			rsh2			rsh3			rsh4			rlmal			rmmal			rcal			rtoe			rmt5			lth1			lth2			lth4			lth3			llfc			lmfc			llmal			lmmal			lcal			lmt5			lsh1			lsh2			lsh3			lsh4			ltoe			SBIKE			LBIKE			RBIKE			
		X1	Y1	Z1	X2	Y2	Z2	X3	Y3	Z3	X4	Y4	Z4	X5	Y5	Z5	X6	Y6	Z6	X7	Y7	Z7	X8	Y8	Z8	X9	Y9	Z9	X10	Y10	Z10	X11	Y11	Z11	X12	Y12	Z12	X13	Y13	Z13	X14	Y14	Z14	X15	Y15	Z15	X16	Y16	Z16	X17	Y17	Z17	X18	Y18	Z18	X19	Y19	Z19	X20	Y20	Z20	X21	Y21	Z21	X22	Y22	Z22	X23	Y23	Z23	X24	Y24	Z24	X25	Y25	Z25	X26	Y26	Z26	X27	Y27	Z27	X28	Y28	Z28	X29	Y29	Z29	X30	Y30	Z30	X31	Y31	Z31	X32	Y32	Z32	X33	Y33	Z33	X34	Y34	Z34	X35	Y35	Z35	X36	Y36	Z36	X37	Y37	Z37	X38	Y38	Z38	X39	Y39	Z39	X40	Y40	Z40	X41	Y41	Z41	X42	Y42	Z42	X43	Y43	Z43	X44	Y44	Z44	X45	Y45	Z45	X46	Y46	Z46	X47	Y47	Z47	X48	Y48	Z48	X49	Y49	Z49	X50	Y50	Z50	
1750	8.7500	695.291826	1325.283858	-82.605394	700.449869	1318.488823	-393.185009	690.451990	1341.568561	-234.874878	675.457776	1201.488376	-240.970628	599.963367	1077.050359	11.864193	644.988929	870.778671	-61.670934	583.769689	1073.770767	-505.324901	647.212645	882.224133	-416.605025	152.352099	1168.777066	-185.547148	300.710914	1165.336413	-361.745855	356.044381	1139.296594	-70.709659	303.414017	1075.433640	-326.557191	331.391012	1049.941988	-84.862410	213.447259	1206.467883	-131.470438	204.247939	1226.966120	-243.814418	220.987390	1030.999876	-21.931770	192.219160	1066.651616	-396.032265	247.343181	881.981924	-9.732359	278.407583	803.217037	-36.685998	263.999870	719.715202	-51.161741	312.317730	811.225869	-50.847300	293.854582	621.939200	-82.184181	243.220040	619.146692	-187.222842	236.751736	524.715902	-35.920132	234.290827	436.571500	-48.697670	191.134846	361.630142	-45.133195	258.848373	431.971498	-77.974067	158.507406	262.943650	-54.263958	176.057925	270.777830	-138.185857	101.036877	250.887823	-99.893802	335.976691	186.502339	-106.892221	252.793181	176.190782	-42.251480	275.645935	960.308394	-415.019490	350.580903	918.831067	-400.136725	372.819543	943.480480	-384.107661	396.149478	842.903004	-399.207532	471.843133	753.019575	-375.643644	453.094443	745.959642	-253.028262	128.352865	593.193897	-386.866530	136.682171	580.231256	-304.822733	77.907412	623.830630	-341.364841	96.409125	446.953316	-399.161209	366.739817	699.732118	-410.029168	303.921962	643.201983	-394.492691	215.657746	621.897501	-398.193884	314.788242	624.038535	-361.734467	150.856438	380.142843	-341.907349	-217.902003	833.418267	-213.709854	-104.006333	80.563879	-418.291848	-103.987053	80.454662	-18.288738	
1751	8.7550	694.083757	1325.177462	-83.985002	700.544183	1318.831235	-394.100649	689.402957	1341.430830	-235.683874	676.841676	1201.324003	-241.710010	598.915233	1076.599652	11.457947	645.295758	870.551337	-61.863104	584.942024	1073.668018	-506.071257	647.141776	882.321697	-416.695059	151.774921	1164.995390	-182.576036	298.370249	1163.590491	-361.410579	357.397075	1136.100935	-71.540355	301.822642	1073.930728	-325.953322	332.372309	1046.689595	-85.564331	213.578465	1202.591393	-128.886695	201.773286	1222.631045	-240.143600	222.517733	1026.376975	-20.089680	190.350227	1064.426278	-395.273299	245.071734	879.745039	-7.940647	273.635886	800.335664	-35.099152	256.865208	717.081734	-49.162588	307.582859	807.320921	-49.724048	285.878434	618.623561	-80.777257	232.946686	616.976117	-185.721491	229.352382	521.118688	-34.599354	226.984670	433.148884	-47.524004	183.994476	358.119390	-43.999742	251.249164	428.701537	-77.167441	152.044151	259.367798	-53.621093	169.496387	266.638860	-137.206514	94.604523	249.012457	-99.445114	327.881821	178.629915	-106.878186	244.525264	170.418096	-42.085877	276.502448	959.457196	-413.464986	353.014200	921.035895	-398.982408	374.369039	946.491641	-382.993890	401.719551	846.927059	-398.267908	478.078727	759.017131	-375.684335	459.367375	749.680921	-253.278894	134.070233	600.063935	-386.174540	142.371524	586.930676	-303.780163	82.504897	629.517217	-341.005252	104.966790	453.110100	-398.827496	371.706433	707.054396	-410.523499	309.052440	650.388568	-395.090667	220.788040	629.011895	-397.830320	320.363954	630.594278	-362.825321	161.570546	387.888637	-341.965232	-217.906961	833.404925	-213.681701	-103.996601	80.586340	-418.294379	-103.974523	80.403191	-18.284678	
1752	8.7600	692.908647	1325.051189	-85.477297	700.696298	1318.955303	-394.963485	688.386728	1341.207112	-236.469224	678.236856	1201.104332	-242.369931	597.804657	1076.164375	11.107393	645.247468	870.393940	-61.659781	586.013189	1073.389632	-506.850469	647.041695	882.425859	-416.742934	151.237706	1161.141127	-179.749845	295.935084	1161.619801	-361.007642	358.658973	1132.709688	-72.421658	300.374365	1072.368686	-325.803612	333.418981	1043.274950	-86.033658	214.433404	1197.532720	-127.557004	199.967007	1219.804397	-237.826667	223.952298	1021.840944	-18.162346	188.364387	1061.993210	-394.503535	242.730507	877.888332	-6.331315	268.851495	797.581382	-33.407539	250.251598	714.704395	-46.776618	303.150924	803.768609	-48.449687	278.024696	615.746739	-78.920359	223.880893	614.952736	-184.108137	221.836783	518.232312	-33.211397	219.786912	430.286845	-46.400522	176.936570	354.868259	-42.854045	243.833419	425.704536	-76.227699	145.450205	256.451822	-52.850508	162.655974	263.613664	-136.285768	88.075438	247.613713	-98.962100	319.502455	171.454760	-107.022424	235.992637	165.349270	-42.013889	277.432827	958.598882	-412.041691	355.423543	923.173240	-397.581694	375.896396	949.953562	-382.433305	407.235902	851.186206	-396.775270	483.861179	765.330187	-375.781781	465.633657	753.422099	-253.827667	139.612196	606.353465	-385.403674	148.920329	593.389572	-303.848892	86.791971	634.533214	-340.644367	114.308839	458.869416	-398.784811	376.331254	714.697284	-411.219868	313.597481	656.968771	-395.887220	225.820319	635.970151	-397.589878	325.958410	636.745125	-363.792684	172.535852	395.252688	-342.072870	-217.791642	833.588784	-213.734552	-103.993129	80.572419	-418.290819	-103.968181	80.387594	-18.278304	
1753	8.7650	691.759971	1324.965158	-87.023305	700.876183	1318.858865	-395.801574	687.294724	1340.945788	-237.217712	680.006473	1200.851022	-242.932644	596.614434	1075.824746	10.778986	645.201844	870.341655	-61.513059	586.886806	1073.077009	-507.807768	646.914216	882.571663	-416.766051	150.800563	1157.466617	-177.420576	293.645480	1159.660031	-360.945062	359.890076	1129.164490	-73.388902	298.900063	1070.544709	-325.525475	334.030920	1039.475157	-86.548057	214.750365	1193.212524	-125.565090	198.775759	1216.712662	-235.493874	225.317243	1017.592361	-15.945048	186.249435	1059.338570	-393.658679	240.446106	876.466187	-4.725015	264.541630	795.323996	-31.613552	244.153930	712.841234	-44.145620	298.818233	800.768282	-46.981469	270.160763	613.379117	-76.689606	215.469323	613.233547	-182.158210	214.560023	515.674748	-31.778491	212.634186	427.861656	-45.040976	170.060638	352.108213	-41.639878	236.409623	423.394880	-75.189189	138.707595	254.048928	-52.003585	155.770672	261.023028	-135.198809	81.463790	247.065553	-98.519419	310.894818	164.731221	-107.021863	227.168198	160.621066	-41.907146	278.337112	957.927749	-410.802287	357.859946	925.665149	-396.874962	377.451478	953.262950	-381.894805	412.550275	855.781621	-396.271482	489.186652	771.822392	-376.314459	471.895358	757.297204	-254.710510	145.157675	612.029822	-384.597514	154.765949	598.938416	-303.165731	91.408072	638.804836	-340.260552	123.725138	464.026495	-398.813138	380.818645	722.155218	-411.562913	318.565506	664.000938	-396.504853	230.813063	642.604476	-397.235217	331.556236	643.188063	-365.226284	183.776416	402.094505	-342.095952	-217.927543	833.391496	-213.582482	-104.001952	80.550042	-418.283544	-103.980735	80.391007	-18.277369	
1754	8.7700	690.536873	1324.839304	-88.498401	701.089516	1318.530282	-396.589085	686.163884	1340.707558	-237.998287	681.318782	1200.683708	-243.556030	595.502468	1075.710216	10.570378	645.211923	870.270394	-61.324436	587.742774	1072.692927	-508.860231	646.757864	882.724707	-416.776382	149.800643	1153.761882	-174.956086	291.411918	1157.769597	-360.802904	361.063493	1125.619224	-74.458259	297.492089	1068.879239	-325.666210	334.732591	1036.003345	-87.030129	215.206678	1189.399857	-124.104155	197.526003	1213.275392	-232.946555	226.494315	1013.813219	-13.741041	183.990226	1056.505496	-392.762977	238.096574	875.227033	-3.175775	260.578364	793.605910	-29.602149	238.611174	711.324394	-41.292496	294.849318	798.182655	-45.305025	262.191561	611.316525	-74.307119	208.522840	611.097096	-179.558550	207.297029	513.507315	-30.188011	205.502266	425.817904	-43.701550	163.222998	349.970364	-40.244317	229.153901	421.706674	-73.655132	131.755627	252.067580	-51.149440	148.788872	259.438057	-134.015716	74.649136	246.762958	-97.905822	301.909448	158.781265	-106.893676	218.115039	156.721626	-41.671317	279.104210	957.470339	-409.490677	360.017520	928.341471	-396.578687	378.679830	956.609501	-381.558093	417.369496	860.584088	-396.597871	494.184408	778.542834	-377.097545	478.100041	761.463774	-255.666041	151.290504	617.751043	-384.847195	160.543735	604.172791	-302.567738	95.894084	642.319525	-339.669023	133.459468	468.770127	-398.759985	385.156822	729.570407	-411.773281	323.418994	670.811638	-396.993160	235.768890	649.055990	-396.844316	337.034889	649.196207	-366.613032	195.203073	408.589330	-342.141667	-217.832313	833.576241	-213.684982	-104.005916	80.565290	-418.292031	-103.960505	80.386819	-18.274788	
